<?xml version="1.0" encoding="utf-8"?>
<!-- Generator: Adobe Illustrator 26.3.1, SVG Export Plug-In . SVG Version: 6.00 Build 0)  -->
<svg version="1.1" id="Layer_1" xmlns="http://www.w3.org/2000/svg" xmlns:xlink="http://www.w3.org/1999/xlink" x="0px" y="0px"
	 viewBox="0 0 754.43 309.13" style="enable-background:new 0 0 754.43 309.13;" xml:space="preserve">
<style type="text/css">
	.st0{fill:#F71963;}
</style>
<path class="st0" d="M543.4,128.41h-25.32v86.32c0,0.79-0.32,1.54-0.87,2.1s-1.32,0.87-2.1,0.87h-19.52c-0.79,0-1.55-0.31-2.11-0.87
	c-0.56-0.56-0.87-1.31-0.87-2.1v-86.32h-25.47c-0.38,0.02-0.76-0.04-1.13-0.18c-0.36-0.14-0.69-0.34-0.96-0.6
	c-0.28-0.26-0.5-0.58-0.65-0.93c-0.16-0.35-0.24-0.73-0.24-1.11v-15.27c0-0.38,0.08-0.76,0.24-1.11c0.15-0.35,0.37-0.67,0.65-0.93
	c0.28-0.26,0.61-0.47,0.96-0.6c0.36-0.13,0.74-0.19,1.13-0.18h76.26c0.79-0.04,1.57,0.24,2.15,0.77c0.59,0.53,0.94,1.27,0.98,2.05
	v15.27c-0.04,0.79-0.39,1.52-0.98,2.05C544.96,128.17,544.19,128.45,543.4,128.41"/>
<path class="st0" d="M624.66,217.08c-5.22,0.74-13.99,1.93-30.09,1.93c-19.22,0-36.21-4.89-36.21-31.88v-49.26
	c0-26.98,17.14-31.73,36.37-31.73c16.08,0,24.72,1.19,29.93,1.93c2.09,0.3,2.98,1.04,2.98,2.97v13.81c0,0.79-0.32,1.54-0.87,2.09
	c-0.56,0.56-1.32,0.87-2.11,0.87h-31.42c-7,0-9.54,2.37-9.54,10.09v13.49h39.77c0.79,0,1.55,0.32,2.11,0.87
	c0.55,0.56,0.87,1.31,0.87,2.1v14.08c0,0.79-0.32,1.54-0.87,2.1c-0.56,0.56-1.32,0.87-2.11,0.87H583.7v15.72
	c0,7.71,2.53,10.09,9.54,10.09h31.42c0.79,0,1.55,0.32,2.11,0.87c0.56,0.55,0.87,1.31,0.87,2.1v13.79
	C627.65,215.89,626.75,216.79,624.66,217.08"/>
<path class="st0" d="M737.1,217.67h-23.69c-1.93,0-2.83-0.61-3.88-2.22L688.99,183l-18.61,31.73c-1.05,1.78-2.09,2.97-3.72,2.97
	h-22.05c-1.49,0-2.23-0.89-2.23-1.93c0.03-0.36,0.13-0.72,0.3-1.04l32.28-53.56l-32.61-50.86c-0.17-0.27-0.27-0.58-0.3-0.89
	c0.05-0.54,0.31-1.05,0.72-1.4c0.42-0.36,0.96-0.55,1.51-0.52h23.99c1.64,0,2.83,1.49,3.71,2.82l19.07,29.95l18.45-29.95
	c0.74-1.34,2.09-2.82,3.72-2.82h22.05c0.55-0.02,1.09,0.16,1.51,0.52c0.42,0.36,0.68,0.86,0.73,1.4c-0.03,0.32-0.13,0.62-0.3,0.89
	l-32.46,51.17l33.85,53.24c0.27,0.46,0.42,0.97,0.45,1.49C739.05,217.08,738.3,217.67,737.1,217.67"/>
<path class="st0" d="M428.43,107.8c-0.53,0-1.05,0.19-1.46,0.52c-0.41,0.34-0.69,0.81-0.8,1.33l-21.63,79.66
	c-0.3,1.64-0.74,2.23-2.09,2.23s-1.78-0.62-2.09-2.23l-21.65-79.68c-0.11-0.52-0.38-0.99-0.79-1.32c-0.41-0.34-0.93-0.52-1.46-0.52
	h-21.29c-0.35,0-0.69,0.08-1,0.23c-0.31,0.15-0.59,0.37-0.8,0.64c-0.21,0.27-0.36,0.59-0.44,0.92s-0.08,0.68,0,1.02
	c0,0,26.42,91.36,26.71,92.26c3.53,10.88,12.09,16.08,22.98,16.08c10.37,0,19.42-5.45,22.96-16.06
	c0.42-1.23,26.26-92.29,26.26-92.29c0.08-0.34,0.08-0.68,0-1.02c-0.08-0.34-0.23-0.65-0.44-0.92c-0.22-0.27-0.49-0.49-0.8-0.64
	c-0.32-0.15-0.66-0.23-1-0.23L428.43,107.8z"/>
<path class="st0" d="M297.24,27.66H65.81c-17.95,0-29.44,18.98-21.04,34.76l23.15,43.61H25.95c-2.66,0-5.27,0.69-7.58,1.99
	c-2.32,1.3-4.25,3.17-5.62,5.44c-1.38,2.27-2.14,4.84-2.21,7.49c-0.08,2.64,0.53,5.26,1.77,7.6l74.46,140.22
	c1.31,2.46,3.27,4.53,5.68,5.97c2.4,1.44,5.15,2.2,7.96,2.2c2.8,0,5.56-0.76,7.96-2.2c2.4-1.44,4.37-3.51,5.68-5.97l20.22-37.88
	l25.37,47.78c8.93,16.81,33.12,16.84,42.08,0.05l116-217.18C325.91,46.18,314.72,27.66,297.24,27.66 M193.28,120.45l-50.02,93.67
	c-0.87,1.64-2.18,3.01-3.78,3.97c-1.6,0.96-3.43,1.46-5.29,1.46c-1.87,0-3.7-0.51-5.29-1.46c-1.6-0.96-2.91-2.34-3.78-3.97
	l-49.54-93.27c-0.83-1.56-1.24-3.3-1.19-5.06c0.04-1.76,0.55-3.48,1.46-4.98c0.91-1.51,2.2-2.76,3.74-3.63
	c1.54-0.87,3.27-1.33,5.04-1.33h99.83c1.72,0,3.42,0.44,4.92,1.29c1.5,0.84,2.76,2.06,3.65,3.53c0.89,1.47,1.38,3.14,1.42,4.86
	C194.49,117.24,194.09,118.94,193.28,120.45"/>
</svg>
